<?xml version="1.0" encoding="UTF-8" standalone="no"?>
<svg
   width="787.49615"
   height="179.39148"
   viewBox="0 0 724.44875 165.0293"
   preserveAspectRatio="xMinYMin"
   version="1.1"
   id="svg8"
   sodipodi:docname="tano-logo.svg"
   inkscape:version="1.4.3 (0d15f75, 2025-12-25)"
   xmlns:inkscape="http://www.inkscape.org/namespaces/inkscape"
   xmlns:sodipodi="http://sodipodi.sourceforge.net/DTD/sodipodi-0.dtd"
   xmlns="http://www.w3.org/2000/svg"
   xmlns:svg="http://www.w3.org/2000/svg"
   xmlns:rdf="http://www.w3.org/1999/02/22-rdf-syntax-ns#"
   xmlns:cc="http://creativecommons.org/ns#"
   xmlns:dc="http://purl.org/dc/elements/1.1/"
   xmlns:drawsvg="http://www.drawsvg.org">
  <sodipodi:namedview
     id="namedview8"
     pagecolor="#ffffff"
     bordercolor="#000000"
     borderopacity="0.25"
     inkscape:showpageshadow="2"
     inkscape:pageopacity="0.0"
     inkscape:pagecheckerboard="0"
     inkscape:deskcolor="#d1d1d1"
     inkscape:zoom="0.9755167"
     inkscape:cx="322.9058"
     inkscape:cy="49.717242"
     inkscape:window-width="1920"
     inkscape:window-height="1009"
     inkscape:window-x="-8"
     inkscape:window-y="-8"
     inkscape:window-maximized="1"
     inkscape:current-layer="svg8" />
  <defs
     id="drawsvgConstraints">
    <defs
       id="constraint2"
       drawsvg:constraint="{'type':'connectPoints', 'ids':['e17_shape','e20_shape'], 'priority':0, 'index-p1':4, 'index-p2':0}" />
  </defs>
  <path
     id="svgEditorBackground"
     style="fill:none;stroke:none"
     d="M 40.228579,-0.94302787 V 164.08627 H 683.8985 V -0.94302787 Z M 128.20319,42.144863 c 0.35064,-0.0029 0.74452,0.05073 1.17578,0.173828 0.85339,0.243598 1.70499,0.499219 2.54883,0.77539 0.25292,-0.208172 0.57389,-0.319651 0.92968,-0.3125 0.67432,0.01355 1.47087,0.455807 2.14844,1.486329 0.0558,0.08489 0.11031,0.170969 0.16211,0.257812 0.34455,0.217657 0.67993,0.449556 1.00977,0.689453 0.78109,0.579788 1.53842,1.192853 2.23242,1.875 0.89313,0.867842 1.27436,1.997863 1.51953,3.185547 0.19264,1.106426 0.23488,2.231431 0.27539,3.351562 0.0303,0.953061 0.0389,1.90787 0.0449,2.861329 2.1e-4,0.85043 0.0299,1.700149 -0.0293,2.548828 -0.0518,1.135351 -0.38856,2.151632 -0.96094,3.126953 -0.66828,0.963484 -1.52924,1.768485 -2.43555,2.503906 -0.81731,0.696383 -1.76056,1.213559 -2.6582,1.792969 -0.13163,0.08121 -0.2629,0.162931 -0.39453,0.244141 -1.70347,1.051024 -3.05036,0.55343 -3.37695,-0.417969 -0.31223,0.201392 -0.63602,0.38432 -0.97657,0.541015 -3.0498,1.403292 -4.82694,-1.274877 -2.36718,-2.841796 -0.194,-0.767941 0.22688,-1.784654 1.55078,-2.560547 0.16312,-0.0956 0.32516,-0.189557 0.48828,-0.285157 0.62059,-0.376403 1.20208,-0.838372 1.65625,-1.408203 0.28866,-0.31824 0.51882,-0.683753 0.74805,-1.044922 0.0839,-0.699805 0.065,-1.401066 0.0547,-2.105468 -0.008,-0.758449 -0.0162,-1.515954 -0.0586,-2.273438 -0.0426,-0.657617 -0.0974,-1.318423 -0.25196,-1.960937 -0.15788,-0.601885 -0.36092,-1.192259 -0.69726,-1.720704 -0.80405,-1.263271 -0.75444,-2.344091 -0.28125,-2.957031 -0.31635,-0.5314 -0.45616,-1.024142 -0.45899,-1.449219 -0.47174,-0.144342 -0.94452,-0.282287 -1.41797,-0.417968 -3.01788,-0.864867 -2.63416,-3.638105 -0.17968,-3.658203 z m 8.33789,10.570312 c -0.0256,0.04942 -0.0518,0.09707 -0.0801,0.142578 0.0289,0.293237 0.0514,0.586969 0.0723,0.88086 0.0561,0.877842 0.0721,1.757386 0.084,2.636718 0.004,0.06285 0.006,0.12482 0.008,0.1875 5.6e-4,-0.0172 0.001,-0.03359 0.002,-0.05078 -0.006,-0.918188 -0.0142,-1.836094 -0.043,-2.753906 -0.0124,-0.347288 -0.0251,-0.695401 -0.043,-1.042969 z m 0.082,4.306641 c -0.0309,0.793144 -0.18936,1.57466 -0.36524,2.349609 -0.11461,0.480635 -0.28954,0.938006 -0.5039,1.376953 0.13814,-0.14667 0.27194,-0.297639 0.40039,-0.453125 0.072,-0.113994 0.17745,-0.20697 0.23242,-0.330078 0.16996,-0.380602 0.14963,-0.82081 0.2207,-1.222656 0.062,-0.56919 0.0234,-1.146719 0.0156,-1.720703 z m -45.720708,0.287109 c 0.88027,0.01711 1.50254,0.481222 1.67969,1.109375 1.37244,0.426304 1.57057,2.303951 -0.57226,3.587891 -0.22434,0.13442 -0.4071,0.316194 -0.58789,0.501953 -0.23317,0.239573 -0.46812,0.433768 -0.69922,0.585937 -0.0615,0.321283 -0.17687,0.671266 -0.35742,1.046875 -0.40495,0.842431 -0.88133,1.644305 -1.44336,2.390625 -0.61868,0.766295 -1.34666,1.432086 -2.07813,2.087891 -0.1211,0.105281 -0.24139,0.211804 -0.36133,0.318359 -0.12954,0.180597 -0.26408,0.357523 -0.40429,0.53125 -0.53716,0.688219 -1.16389,1.298706 -1.74219,1.951172 -0.38684,0.511293 -0.64322,1.103247 -0.89258,1.689453 -0.35515,0.829168 -0.51034,1.718282 -0.70508,2.59375 -0.21988,1.005984 -0.29393,2.035309 -0.35742,3.060547 -0.13318,1.176425 -0.25313,2.353904 -0.33398,3.535157 -0.10527,1.750607 -0.20381,3.49153 -0.17188,5.246093 0.0628,3.451271 -3.2961,3.640429 -3.60156,0.455078 -1.15473,0.514732 -2.5336,-0.511132 -2.20703,-2.802734 0.34562,-2.42533 0.67665,-4.857784 1.1875,-7.253906 -0.96801,-0.09892 -1.7944,-1.224964 -1.39063,-3.105469 0.23693,-1.10346 0.69691,-2.14072 1.125,-3.179688 0.48976,-1.283366 1.24944,-2.39519 2.16797,-3.404296 0.58172,-0.590706 1.19096,-1.153433 1.80859,-1.707032 0.25414,-0.30841 0.50647,-0.617456 0.72461,-0.949218 0.36137,-0.518815 0.71171,-1.051262 1.14258,-1.515625 0.34872,-0.387248 0.57021,-0.876449 0.85156,-1.310547 0.40716,-0.597831 0.82769,-1.187627 1.33399,-1.707032 0.60019,-0.683346 1.28469,-1.283847 2.01953,-1.820312 0.65401,-0.492822 1.29502,-1.004027 2.01172,-1.40625 0.68442,-0.384108 1.31765,-0.539716 1.85351,-0.529297 z" />
  <defs
     id="svgEditorDefs">
    <style
       type="text/css"
       id="style1">.svg_text_unselect{-moz-user-select:none;-webkit-user-select:none;-ms-user-select:none}
</style>
  </defs>
  <title
     id="title1">アセット 1</title>
  <g
     id="g8"
     transform="translate(40.228579,-0.94302787)">
    <path
       d="m 59.27,164.53 a 0.43,0.43 0 0 1 -0.65,0.36 l -34.31,-21 C 8.76,133.79 0,120.65 0,100.81 V 57.33 A 0.42,0.42 0 0 1 0.63,57 L 17,66.42 a 0.58,0.58 0 0 1 0.29,0.5 v 32.8 c 0,15.61 7.08,22.2 16.14,29.13 L 59,144.4 a 0.59,0.59 0 0 1 0.29,0.5 z"
       style="fill:#008833"
       id="e13_path" />
    <path
       d="m 104.76,96.94 v 14.28 a 0.42,0.42 0 0 0 0.66,0.35 l 8.24,-5.35 a 0.32,0.32 0 0 1 0.5,0.3 c -1.75,15.79 -21.74,25.34 -25,26.81 a 0.32,0.32 0 0 1 -0.45,-0.29 V 99.46 a 9.78,9.78 0 0 1 4.57,-8.28 L 129.63,68 a 0.58,0.58 0 0 0 0.27,-0.49 V 47.88 a 0.44,0.44 0 0 0 -0.66,-0.37 L 77,80.23 a 13,13 0 0 0 -6.17,11.08 v 73.4 a 0.32,0.32 0 0 0 0.49,0.27 l 35.41,-22 c 13.75,-9.27 23.24,-21.45 23.24,-41.61 V 82 a 0.43,0.43 0 0 0 -0.65,-0.36 L 105,96.57 a 0.43,0.43 0 0 0 -0.24,0.37 z"
       id="path1" />
    <g
       id="g7">
      <rect
         x="243.42999"
         y="106.62"
         width="12.41"
         height="12.41"
         id="rect1" />
      <path
         d="m 288,62.09 h -12.4 v 45.16 a 11.62,11.62 0 0 0 3.4,8.37 11.43,11.43 0 0 0 8.37,3.4 h 34 v -12.4 H 288 Z"
         id="path2" />
      <path
         d="m 337,107.25 a 11.63,11.63 0 0 0 3.41,8.37 11.39,11.39 0 0 0 8.36,3.4 h 34 v -12.4 h -33.34 v -9.86 h 29.89 V 84.35 H 349.43 V 74.5 h 33.39 V 62.09 h -45.88 z"
         id="path3" />
      <path
         d="m 437.4,62.09 h -34.12 l 0.09,56.53 v 0.4 h 12.4 v -17.45 h 21 V 119 h 12.4 V 73.86 a 11.36,11.36 0 0 0 -3.48,-8.27 11.18,11.18 0 0 0 -8.29,-3.5 z m -0.64,12.41 v 14.66 h -21 V 74.5 Z"
         id="path4" />
      <path
         d="m 468.38,107.25 a 11.64,11.64 0 0 0 3.4,8.37 11.41,11.41 0 0 0 8.37,3.4 h 22.26 a 11.49,11.49 0 0 0 8.27,-3.4 11.27,11.27 0 0 0 3.5,-8.37 v -22.9 h -23.54 v 12.41 h 11.13 v 9.86 h -21 V 74.5 h 33.4 V 62.09 h -45.88 z"
         id="path5" />
      <path
         d="M 643.67,74.5 V 62.09 h -45.88 l 0.08,45.16 a 11.63,11.63 0 0 0 3.41,8.37 11.39,11.39 0 0 0 8.36,3.4 h 34 v -12.4 h -33.36 v -9.86 h 29.89 V 84.35 H 610.28 V 74.5 Z"
         id="path6" />
      <path
         d="m 566.47,106.62 h -21 V 62.09 h -12.39 v 45.16 a 11.65,11.65 0 0 0 3.41,8.37 11.41,11.41 0 0 0 8.36,3.4 h 22.26 a 11.4,11.4 0 0 0 8.37,-3.41 11.6,11.6 0 0 0 3.4,-8.36 V 62.09 h -12.41 z"
         id="path7" />
    </g>
  </g>
  <text
     style="font-weight:normal;font-size:38.2px;font-family:'\'Arial Black\' jubkuyb';text-decoration:underline;text-decoration-line:underline;text-anchor:middle;fill:#0000ff"
     x="138.12857"
     y="186.76198"
     id="e6_texte" />
  <path
     d="M 126.9504,16.016039 107.67926,4.8381423 40.953478,48.823662 60.565012,60.001154 Z"
     style="vector-effect:non-scaling-stroke;fill:#d7000f;stroke:#000000;stroke-width:0px"
     id="e7_shape"
     sodipodi:nodetypes="ccccc" />
  <path
     id="e17_shape"
     style="vector-effect:non-scaling-stroke;fill:#d7000f;stroke:#000000;stroke-width:0px;stroke-dasharray:none;stroke-dashoffset:0"
     d="m 97.714912,29.76205 c -5.15716,-0.326048 -19.53961,4.777175 -15.88868,11.003907 L 104.54303,55.773769 89.168032,66.193691 c -0.0802,0.113986 -0.1621,0.226373 -0.2461,0.337892 -0.61868,0.766299 -1.34666,1.432085 -2.07812,2.087891 -0.121,0.105153 -0.24149,0.211904 -0.36134,0.318361 -0.12969,0.180695 -0.264,0.357436 -0.40429,0.531247 -0.53715,0.688219 -1.16388,1.29871 -1.74219,1.951173 -0.38684,0.511296 -0.64321,1.103251 -0.89258,1.689452 -0.35515,0.829167 -0.51034,1.718283 -0.70507,2.593751 -0.21988,1.005977 -0.29394,2.035309 -0.35742,3.060546 -0.0314,0.277787 -0.0621,0.556035 -0.0918,0.83399 2.77331,22.339896 16.58696,51.363326 17.763678,-0.224607 l 31.04105,-20.078134 c 0.14042,-0.197435 0.27093,-0.403451 0.4004,-0.60742 0.0838,-0.6998 0.0649,-1.401072 0.0547,-2.105468 -0.008,-0.758448 -0.0161,-1.515955 -0.0586,-2.273439 -0.0426,-0.657613 -0.0973,-1.318422 -0.25195,-1.960937 -0.11244,-0.428884 -0.24725,-0.851038 -0.4375,-1.250002 L 99.281302,30.246424 c -0.28067,-0.280674 -0.82967,-0.437801 -1.56641,-0.484377 z" />
  <path
     id="e20_shape"
     style="vector-effect:non-scaling-stroke;fill:#d7000f;fill-opacity:1;stroke:#000000;stroke-width:0px"
     d="m 83.865302,72.181971 c -0.15516,0.302033 -0.28926,0.615976 -0.42188,0.927737 -0.35514,0.829169 -0.51034,1.718281 -0.70508,2.59375 -0.21988,1.00598 -0.29393,2.035308 -0.35742,3.060545 -0.13318,1.176423 -0.25313,2.353906 -0.33398,3.535156 -0.10526,1.750609 -0.20381,3.49153 -0.17188,5.246094 0.005,0.253855 -0.009,0.490476 -0.0391,0.708987 l 0.0195,36.31518 c 5.91203,3.13089 19.703538,12.99859 17.72852,11.20007 V 79.99838 Z"
     sodipodi:nodetypes="cccccsccccc" />
  <path
     style="fill:#d7000f;fill-opacity:1;stroke-dasharray:none;stroke-dashoffset:0"
     d="m 100.75385,75.529025 c -3.624268,11.960084 13.04737,-20.658327 3.9867,-2.899414"
     id="path37" />
  <path
     id="path41"
     style="fill:#d7000f;fill-opacity:1;stroke-dasharray:none;stroke-dashoffset:0"
     d="m 83.173892,73.857753 c -0.14333,0.476958 -0.24497,0.967155 -0.34961,1.455078 0.0273,0.333819 0.0568,0.723304 0.0801,1.173829 -0.004,0.572609 -0.0408,1.148433 -0.0176,1.71875 0.009,1.136561 -0.0216,2.27985 0.13477,3.408203 0.1971,1.183069 0.65126,2.279846 1.23828,3.324218 l 13.70703,5.945313 c -0.71663,-0.829105 -1.19503,-1.805751 -1.54297,-2.835938 -0.26959,-1.01373 -0.28784,-2.067384 -0.29687,-3.109375 0.0275,-0.449586 4e-4,-0.905364 -0.0137,-1.361328 h 0.002 c 0.0225,-0.580865 0.0543,-1.059839 0.0801,-1.458984 0.001,-0.005 0.003,-0.01064 0.004,-0.01563 l -0.002,-0.002 c 0.19599,-3.031601 0.0493,-1.369994 -6.99219,-4.027344 -3.73574,-2.382517 -5.36478,-3.879436 -6.03125,-4.214844 z" />
  <circle
     id="path68"
     style="fill:#d7000f;fill-opacity:1;stroke:#000000"
     cx="-39.867741"
     cy="17.178312"
     r="0.1824563" />
  <path
     style="fill:#d7000f;fill-opacity:1;stroke-dasharray:none;stroke-dashoffset:0"
     id="path69"
     d="m 94.915412,65.142893 c -0.81217,0.730785 -1.70692,1.327665 -2.41489,2.171075 -0.68578,0.704618 -1.02108,1.627019 -1.51293,2.454757 -0.38777,0.547035 -0.93637,0.928064 -1.33197,1.471304 -0.46711,0.61758 -0.95796,1.222379 -1.42367,1.842982 -0.49651,0.781122 -0.89876,1.624359 -1.22975,2.48807 -0.35612,0.840885 -0.62379,1.704881 -0.75271,2.608702 -0.045,0.894127 -0.30866,1.73293 -0.61439,2.564086 -0.33229,0.910099 -0.49082,1.873236 -0.64633,2.826465 -0.28279,1.897584 -0.53813,3.800153 -0.77345,5.704329 0,0 12.7985,6.767972 12.7985,6.767972 v 0 c 0.33863,-1.843744 0.6961,-3.681726 1.10587,-5.510974 0.1414,-0.859473 0.33218,-1.713337 0.55574,-2.553883 0.34354,-0.934894 0.63615,-1.878145 0.78104,-2.867757 0.0746,-0.800039 0.23463,-1.578233 0.578198,-2.31165 0.25338,-0.734876 0.63867,-1.42137 1.01012,-2.10083 0.47707,-0.618815 1.00588,-1.196076 1.4864,-1.812369 0.44943,-0.558476 1.03545,-1.009508 1.39104,-1.645607 0.42837,-0.752771 0.65299,-1.612619 1.29798,-2.231474 0.67702,-0.702253 1.47501,-1.279352 2.30156,-1.793478 z" />
  <rect
     style="fill:#000000;stroke-dasharray:none;paint-order:normal"
     id="rect8"
     width="12.020941"
     height="50.173401"
     x="237.69046"
     y="68.087273"
     ry="0" />
  <rect
     style="fill:#000000;stroke-dasharray:none;paint-order:normal"
     id="rect9"
     width="55.355267"
     height="12.301174"
     x="216.28912"
     y="59.794014" />
  <metadata
     id="metadata1">
    <rdf:RDF>
      <cc:Work
         rdf:about="">
        <dc:title>アセット 1</dc:title>
      </cc:Work>
    </rdf:RDF>
  </metadata>
</svg>
